{"title":"The Living And The Dead S01 1080p BluRay HEVC DD2.0 x265","uid":15596499,"size":5941557767,"categoryP":"video","categoryS":"hd___tv_shows","magnet":"?xt=urn:btih:e5ff38d365c1da9b33239f1362cc2ae6766158d3&amp;dn=The+Living+And+The+Dead+S01+1080p+BluRay+HEVC+DD2.0+x265&amp;tr=udp%3A%2F%2Ftracker.leechers-paradise.org%3A6969&amp;tr=udp%3A%2F%2Fzer0day.ch%3A1337&amp;tr=udp%3A%2F%2Fopen.demonii.com%3A1337&amp;tr=udp%3A%2F%2Ftracker.coppersurfer.tk%3A6969&amp;tr=udp%3A%2F%2Fexodus.desync.com%3A6969","seeders":7,"leechers":2,"uploader":"nayhtut","files":12,"time":1471574989,"description":"[Screenshots]\r\n \nhttps://s4.postimg.org/b6f28zrwt/The_Living_And_The_Dead_S01_E06_1080p_Blu_Ray_HEVC.jpg \nhttps://s4.postimg.org/oolyla425/The_Living_And_The_Dead_S01_E05_1080p_Blu_Ray_HEVC.jpg \nhttps://s4.postimg.org/3szoa17v1/The_Living_And_The_Dead_S01_E04_1080p_Blu_Ray_HEVC.jpg \nhttps://s4.postimg.org/7145n2u4t/The_Living_And_The_Dead_S01_E03_1080p_Blu_Ray_HEVC.jpg \nhttps://s4.postimg.org/f7w5enk7h/The_Living_And_The_Dead_S01_E02_1080p_Blu_Ray_HEVC.jpg \nhttps://s4.postimg.org/b05yjn85p/The_Living_And_The_Dead_S01_E01_1080p_Blu_Ray_HEVC.jpg\r\n\r\n\r\nSource:  The Living And The Dead S01 1080p BluRay x264-SHORTBREHD  (Size: 26.24 GB)\r\n\r\n__--__--__--__--__--__--__--__--__--__--__--__--__--\r\n\r\n\r\n\r\nContains:   The Living And The Dead Season One - Episode 01 to 06\r\n\r\nFormat                                   : Matroska\r\nFormat version                           : Version 4 / Version 2\r\nFile size                                : 5.53 GiB\r\nDuration                                 : Various\r\nOverall bit rate                         : 2 277 Kbps\r\nWriting application                      : Lavf57.25.100\r\nWriting library                          : Lavf57.25.100\r\n\r\nVideo\r\n\r\nID                                       : 1\r\nFormat                                   : V_MPEGH/ISO/HEVC\r\nCodec ID                                 : V_MPEGH/ISO/HEVC\r\nDuration                                 : 58mn 59s\r\nBit rate                                 : 1 911 Kbps\r\nWidth                                    : 1 920 pixels\r\nHeight                                   : 1 080 pixels\r\nDisplay aspect ratio                     : 16:9\r\nFrame rate                               : 25.000 fps\r\nBits/(Pixel*Frame)                       : 0.037\r\nStream size                              : 806 MiB (84%)\r\nWriting library                          : Lavc57.48.101 libx265\r\nDefault                                  : Yes\r\nForced                                   : No\r\nDURATION                                 : 00:58:59.051000000\r\nNUMBER_OF_FRAMES                         : 88475\r\nNUMBER_OF_BYTES                          : 4024052367\r\n_STATISTICS_WRITING_APP                  : no_variable_data\r\n_STATISTICS_WRITING_DATE_UTC             : 1970-01-01 00:00:00\r\n_STATISTICS_TAGS                         : BPS DURATION NUMBER_OF_FRAMES NUMBER_OF_BYTES\r\n\r\nAudio\r\n\r\nID                                       : 2\r\nFormat                                   : AC-3\r\nFormat/Info                              : Audio Coding 3\r\nMode extension                           : CM (complete main)\r\nFormat settings, Endianness              : Big\r\nCodec ID                                 : A_AC3\r\nDuration                                 : 58mn 59s\r\nBit rate mode                            : Constant\r\nBit rate                                 : 320 Kbps\r\nChannel(s)                               : 2 channels\r\nChannel positions                        : Front: L R\r\nSampling rate                            : 48.0 KHz\r\nBit depth                                : 16 bits\r\nCompression mode                         : Lossy\r\nStream size                              : 135 MiB (14%)\r\nWriting library                          : Lavc57.24.102 ac3\r\nLanguage                                 : English\r\nDefault                                  : Yes\r\nForced                                   : No\r\nDURATION                                 : 00:58:59.103000000\r\nNUMBER_OF_FRAMES                         : 331785\r\nNUMBER_OF_BYTES                          : 667551420\r\n_STATISTICS_WRITING_APP                  : no_variable_data\r\n_STATISTICS_WRITING_DATE_UTC             : 1970-01-01 00:00:00\r\n_STATISTICS_TAGS                         : BPS DURATION NUMBER_OF_FRAMES NUMBER_OF_BYTES\r\n\r\nMenu\r\n\r\n00:00:00.000                             : :00:00:00.000\r\n00:09:37.760                             : :00:09:37.760\r\n00:19:09.960                             : :00:19:09.960\r\n00:30:03.920                             : :00:30:03.920\r\n00:39:14.440                             : :00:39:14.440\r\n00:49:23.480                             : :00:49:23.480\r\n\r\n__--__--__--__--__--__--__--__--__--__--__--__--__--\r\n\r\n\r\nIMDb: http://www.imdb.com/title/tt4928166\r\n\r\n\r\n__--__--__--__--__--__--__--__--__--__--__--__--__--\r\n\r\n\r\nAfter adding torrent with magnet link,\r\n\r\nplease add this  following trackers list to the torrent for better seeds.\r\n\r\n\r\nudp://tracker.coppersurfer.tk:6969/announce\r\n\r\nudp://tracker.opentrackr.org:1337/announce\r\n \nhttp://tracker.baravik.org:6970/announce\r\n \nhttp://tracker2.wasabii.com.tw:6969/announce\r\n\r\nudp://9.rarbg.me:2710/announce\r\n\r\n\r\n__--__--__--__--__--__--__--__--__--__--__--__--__--\r\n\r\nEnjoy!","torrent":{"xt":"urn:btih:e5ff38d365c1da9b33239f1362cc2ae6766158d3","amp;dn":"The+Living+And+The+Dead+S01+1080p+BluRay+HEVC+DD2.0+x265","amp;tr":["udp%3A%2F%2Ftracker.leechers-paradise.org%3A6969","udp%3A%2F%2Fzer0day.ch%3A1337","udp%3A%2F%2Fopen.demonii.com%3A1337","udp%3A%2F%2Ftracker.coppersurfer.tk%3A6969","udp%3A%2F%2Fexodus.desync.com%3A6969"],"infoHash":"e5ff38d365c1da9b33239f1362cc2ae6766158d3","infoHashBuffer":{"type":"Buffer","data":[229,255,56,211,101,193,218,155,51,35,159,19,98,204,42,230,118,97,88,211]},"announce":[],"urlList":[]}}